<?xml version="1.0" encoding="UTF-8"?>
<!DOCTYPE svg PUBLIC "-//W3C//DTD SVG 1.1//EN" "http://www.w3.org/Graphics/SVG/1.1/DTD/svg11.dtd">
<svg version="1.1" xmlns="http://www.w3.org/2000/svg" xmlns:xlink="http://www.w3.org/1999/xlink" x="0" y="0" width="2100" height="400" viewBox="0, 0, 2100, 400">
  <g id="Layer_1">
    <path d="M634.77,113.37 C634.77,94.79 646,85.11 663.03,85.11 C680.06,85.11 691.29,94.79 691.29,113.37 L691.29,241.89 L754,172.21 C759.81,166.01 767.16,161.37 775.68,161.37 C788.45,161.37 802.39,172.6 802.39,186.92 C802.39,196.98 798.9,200.08 793.87,205.5 L752.06,249.24 L810.9,328.24 C814.715,333.538 816.749,339.911 816.71,346.44 C816.71,360.76 805.1,373.92 790,373.92 C776.06,373.92 768.71,366.92 764.45,360.76 L711,285.24 L691.26,302.66 L691.26,345.66 C691.26,364.24 680.03,373.92 663,373.92 C645.97,373.92 634.74,364.24 634.74,345.66 z" fill="#013144"/>
    <path d="M858.51,83.56 C874.756,83.56 887.926,96.728 887.93,112.973 C887.934,129.219 874.769,142.393 858.523,142.4 C842.278,142.407 829.101,129.246 829.09,113 C829.079,105.192 832.175,97.701 837.694,92.178 C843.213,86.655 850.702,83.555 858.51,83.56 z M830.25,189.63 C830.25,174.53 836.45,161.37 858.51,161.37 C880.57,161.37 886.77,174.53 886.77,189.63 L886.77,345.63 C886.77,360.73 880.58,373.89 858.51,373.89 C836.44,373.89 830.25,360.73 830.25,345.63 z" fill="#013144"/>
    <path d="M1099.29,314.28 C1099.29,337.89 1105.1,343.28 1105.1,352.21 C1105.1,364.99 1093.1,373.89 1079.55,373.89 C1055.16,373.89 1047.03,358.41 1046.26,340.99 C1024.19,365.37 998.64,373.89 968.84,373.89 C936.71,373.89 904.96,351.83 904.96,316.21 C904.96,269.37 940.58,256.21 983.96,251.21 L1018.42,247.34 C1031.97,245.79 1042.8,242.69 1042.8,226.43 C1042.8,210.17 1026.16,203.21 1007.19,203.21 C965.38,203.21 964.19,234.21 941.77,234.21 C927.45,234.21 917.77,224.14 917.77,212.53 C917.77,190.08 949.51,161.43 1007.58,161.43 C1061.77,161.43 1099.32,178.85 1099.32,219.49 z M1042.77,273.63 C1036.58,279.44 1024.97,281.37 1018.39,282.53 L997.87,285.63 C974.26,289.11 961.48,296.47 961.48,313.5 C961.48,326.28 973.48,336.73 992.84,336.73 C1023.84,336.73 1042.77,316.6 1042.77,295.73 z" fill="#013144"/>
    <path d="M1127.93,113.37 C1127.93,94.79 1139.16,85.11 1156.19,85.11 C1173.22,85.11 1184.45,94.79 1184.45,113.37 L1184.45,345.63 C1184.45,364.21 1173.22,373.89 1156.19,373.89 C1139.16,373.89 1127.93,364.21 1127.93,345.63 z" fill="#013144"/>
    <path d="M1240.58,83.56 C1256.826,83.56 1269.996,96.728 1270,112.973 C1270.004,129.219 1256.839,142.393 1240.593,142.4 C1224.348,142.407 1211.171,129.246 1211.16,113 C1211.149,105.192 1214.245,97.701 1219.764,92.178 C1225.283,86.655 1232.772,83.555 1240.58,83.56 z M1212.32,189.63 C1212.32,174.53 1218.51,161.37 1240.58,161.37 C1262.65,161.37 1268.84,174.53 1268.84,189.63 L1268.84,345.63 C1268.84,360.73 1262.64,373.89 1240.58,373.89 C1218.52,373.89 1212.32,360.73 1212.32,345.63 z" fill="#013144"/>
    <path d="M348.83,5.77 C241.56,5.77 154.6,92.73 154.6,200 C154.6,307.27 241.6,394.23 348.83,394.23 C456.06,394.23 543.06,307.23 543.06,200 C543.06,92.77 456.1,5.77 348.83,5.77 z M348.83,364.67 C257.884,364.676 184.154,290.953 184.15,200.007 C184.146,109.061 257.871,35.332 348.817,35.33 C439.763,35.328 513.49,109.054 513.49,200 C513.484,290.939 439.769,364.659 348.83,364.67 z" fill="#013144"/>
    <path d="M282.14,49.41 C222.566,75.806 184.154,134.84 184.154,200 C184.154,265.16 222.566,324.194 282.14,350.59 C325.296,312.437 350.01,257.603 350.01,200 C350.01,142.397 325.296,87.563 282.14,49.41 z" fill="#0093DD"/>
    <path d="M154.6,200 C154.535,155.374 169.904,112.099 198.1,77.51 C180.848,69.587 162.085,65.493 143.1,65.51 C69.6,65.53 10,125.73 10,200 C10,274.27 69.6,334.47 143.11,334.47 C162.095,334.487 180.858,330.393 198.11,322.47 C169.915,287.887 154.543,244.62 154.6,200 z" fill="#0093DD"/>
    <text transform="matrix(1, 0, 0, 1, 1709.901, 215)">
      <tspan x="-407.6" y="151" font-family="HelveticaNeue-Bold" font-size="400" fill="#003144">/ssu</tspan>
    </text>
  </g>
</svg>
