<?xml version="1.0" encoding="UTF-8"?>
<!DOCTYPE svg PUBLIC "-//W3C//DTD SVG 1.1//EN" "http://www.w3.org/Graphics/SVG/1.1/DTD/svg11.dtd">
<svg version="1.1" xmlns="http://www.w3.org/2000/svg" xmlns:xlink="http://www.w3.org/1999/xlink" x="0" y="0" width="170" height="31" viewBox="0, 0, 170, 31">
  <g id="g4007">
    <path d="M51.853,8.997 C51.853,7.586 52.602,6.88 54.1,6.88 C55.597,6.88 56.346,7.586 56.346,8.997 L56.346,18.88 L61.588,13.586 C61.962,13.233 62.711,12.88 63.46,12.88 C64.583,12.88 65.706,13.586 65.706,14.997 C65.706,15.703 65.332,16.056 64.958,16.409 L61.588,19.939 L66.455,25.939 C66.83,26.292 66.83,26.998 66.83,27.351 C66.83,28.409 65.706,29.468 64.583,29.468 C63.46,29.468 62.711,28.762 62.337,28.409 L57.844,22.409 L56.346,23.821 L56.346,26.998 C56.346,28.409 55.597,29.115 54.1,29.115 C52.602,29.115 51.853,28.409 51.853,26.998 z" fill="#D7F7FF" id="path3991"/>
    <path d="M70.199,6.527 C71.697,6.527 72.446,7.586 72.446,8.644 C72.446,10.056 71.697,11.115 70.199,11.115 C68.702,11.115 67.953,10.056 67.953,8.997 C67.579,7.586 68.702,6.527 70.199,6.527 C70.199,6.527 70.199,6.527 70.199,6.527 z M67.953,14.997 C67.953,13.939 68.327,12.88 70.199,12.88 C72.072,12.88 72.446,13.939 72.446,14.997 L72.446,26.998 C72.446,28.057 72.072,29.115 70.199,29.115 C68.327,29.115 67.953,28.057 67.953,26.998 z" fill="#D7F7FF" id="path3993"/>
    <path d="M90.043,24.527 C90.043,26.292 90.418,26.645 90.418,27.351 C90.418,28.409 89.295,29.115 88.171,29.115 C86.299,29.115 85.55,28.057 85.55,26.645 C83.678,28.409 81.806,29.115 79.185,29.115 C76.564,29.115 73.944,27.351 73.944,24.527 C73.944,20.998 76.939,19.939 80.309,19.586 L83.304,19.233 C84.427,19.233 85.176,18.88 85.176,17.468 C85.176,16.056 83.678,15.703 82.181,15.703 C78.811,15.703 78.811,18.174 76.939,18.174 C75.816,18.174 75.067,17.468 75.067,16.409 C75.067,14.644 77.688,12.527 82.555,12.527 C87.048,12.527 90.043,13.939 90.043,17.115 z M85.55,21.351 C85.176,21.703 84.053,22.056 83.678,22.056 L81.806,22.409 C79.934,22.762 78.811,23.115 78.811,24.527 C78.811,25.586 79.934,26.292 81.432,26.292 C84.053,26.292 85.55,24.88 85.55,23.115 z" fill="#D7F7FF" id="path3995"/>
    <path d="M92.29,8.997 C92.29,7.586 93.039,6.88 94.536,6.88 C96.034,6.88 96.783,7.586 96.783,8.997 L96.783,26.998 C96.783,28.409 96.034,29.115 94.536,29.115 C93.039,29.115 92.29,28.409 92.29,26.998 z" fill="#D7F7FF" id="path3997"/>
    <path d="M101.65,6.527 C103.148,6.527 103.897,7.586 103.897,8.644 C103.897,10.056 102.773,10.762 101.65,10.762 C100.153,10.762 99.404,9.703 99.404,8.644 C99.404,7.586 100.527,6.527 101.65,6.527 C101.65,6.527 101.65,6.527 101.65,6.527 z M99.404,14.997 C99.404,13.939 99.778,12.88 101.65,12.88 C103.522,12.88 103.897,13.939 103.897,14.997 L103.897,26.998 C103.897,28.057 103.522,29.115 101.65,29.115 C99.778,29.115 99.404,28.057 99.404,26.998 z" fill="#D7F7FF" id="path3999"/>
    <path d="M28.265,0.527 C19.279,0.527 12.165,7.233 12.165,15.703 C12.165,24.174 19.279,30.88 28.265,30.88 C37.251,30.88 43.99,23.821 43.99,15.703 C43.99,7.586 36.877,0.527 28.265,0.527 z M28.265,28.409 C20.777,28.409 14.786,22.762 14.786,15.703 C14.786,8.644 20.777,2.997 28.265,2.997 C35.753,2.997 41.744,8.644 41.744,15.703 C41.744,15.703 41.744,15.703 41.744,15.703 C41.744,22.762 35.753,28.409 28.265,28.409 z" fill="#D7F7FF" id="path4001"/>
    <path d="M22.649,4.056 C15.909,6.88 12.54,14.644 15.909,20.998 C17.407,23.821 19.653,26.292 22.649,27.351 C29.388,21.703 30.137,11.821 24.146,5.115 C23.772,4.762 23.023,4.409 22.649,4.056 z" fill="#0093DD" id="path4003"/>
    <path d="M12.165,15.703 C12.165,12.174 13.288,8.997 15.909,6.174 C14.412,5.468 12.914,5.115 11.042,5.115 C5.051,5.115 0.184,9.703 0.184,15.703 C0.184,21.703 5.051,26.292 11.042,26.292 C12.54,26.292 14.037,25.939 15.535,25.233 C13.288,22.409 12.165,19.233 12.165,15.703 z" fill="#0093DD" id="path4005"/>
    <text transform="matrix(1, 0, 0, 1, 136.716, 17.821)">
      <tspan x="-30.57" y="10.07" font-family="HelveticaNeue-Bold" font-size="30" fill="#D7F7FF">/ssu</tspan>
    </text>
  </g>
</svg>
