<?xml version="1.0" encoding="UTF-8"?>
<!DOCTYPE svg PUBLIC "-//W3C//DTD SVG 1.1//EN" "http://www.w3.org/Graphics/SVG/1.1/DTD/svg11.dtd">
<svg version="1.1" xmlns="http://www.w3.org/2000/svg" xmlns:xlink="http://www.w3.org/1999/xlink" x="0" y="0" width="260.772" height="19.843" viewBox="0, 0, 260.772, 19.843">
  <g id="Layer_1">
    <path d="M77.165,17.27 C78.712,17.27 79.951,16.492 79.951,15.033 C79.951,13.477 78.609,12.796 77.474,12.407 C76.443,12.018 75.514,11.629 75.514,10.754 C75.514,10.073 76.133,9.587 77.165,9.587 C77.99,9.587 78.609,9.976 78.816,10.365 L79.435,10.073 C79.228,9.392 78.3,8.808 77.062,8.808 C75.411,8.808 74.482,9.684 74.482,10.754 C74.482,12.115 75.824,12.699 77.062,13.185 C78.093,13.574 79.022,14.06 79.022,15.13 C79.022,16.103 78.3,16.589 77.165,16.589 C76.133,16.589 75.411,16.103 75.101,15.422 L74.276,15.617 C74.585,16.492 75.72,17.27 77.165,17.27 z" fill="#FFFFFF" id="path1790"/>
    <path d="M82.117,17.075 L87.379,17.075 L87.379,16.297 L83.046,16.297 L83.046,13.282 L85.832,13.282 L85.832,12.504 L83.046,12.504 L83.046,9.684 L87.07,9.684 L87.07,8.906 L82.117,8.906 z" fill="#FFFFFF" id="path1792"/>
    <path d="M89.546,17.075 L90.371,17.075 L90.371,13.477 L92.332,13.477 L94.189,17.173 L95.117,17.173 L93.157,13.477 C94.705,13.282 95.324,12.213 95.324,11.24 C95.324,10.17 94.705,9.003 92.641,9.003 L89.443,9.003 L89.443,17.075 z M90.371,12.699 L90.371,9.684 L92.744,9.684 C94.189,9.684 94.601,10.559 94.601,11.24 C94.601,12.018 94.189,12.699 92.744,12.699 z" fill="#FFFFFF" id="path1794"/>
    <path d="M99.967,17.075 L100.586,17.075 L103.578,8.906 L102.649,8.906 L100.586,15.033 C100.482,15.228 100.379,15.519 100.379,15.714 C100.276,15.422 100.173,15.228 100.173,15.033 L98.006,8.906 L96.974,8.906 z" fill="#FFFFFF" id="path1796"/>
    <path d="M105.332,17.075 L106.157,17.075 L106.157,8.906 L105.332,8.906 z" fill="#FFFFFF" id="path1798"/>
    <path d="M111.935,17.27 C113.482,17.27 114.308,16.492 114.721,15.811 L113.998,15.519 C113.586,16.103 113.07,16.589 112.038,16.589 C110.181,16.589 109.355,14.936 109.355,13.088 C109.355,11.434 110.078,9.587 112.038,9.587 C113.07,9.587 113.586,10.073 113.895,10.559 L114.617,10.17 C114.102,9.489 113.482,8.808 111.935,8.808 C109.459,8.808 108.324,10.851 108.324,12.991 C108.324,15.13 109.355,17.27 111.935,17.27 z" fill="#FFFFFF" id="path1800"/>
    <path d="M116.784,17.075 L122.046,17.075 L122.046,16.297 L117.61,16.297 L117.61,13.282 L120.395,13.282 L120.395,12.504 L117.61,12.504 L117.61,9.684 L121.737,9.684 L121.737,8.906 L116.784,8.906 z" fill="#FFFFFF" id="path1802"/>
    <path d="M136.594,17.075 L136.594,8.906 L135.872,8.906 L133.189,14.839 C133.086,15.033 133.086,15.13 132.983,15.325 C132.879,15.13 132.879,15.033 132.776,14.839 L130.094,8.906 L129.371,8.906 L129.371,17.075 L130.197,17.075 L130.197,11.532 L130.197,11.143 C130.3,11.337 130.3,11.434 130.403,11.629 L132.879,17.367 L135.562,11.629 C135.665,11.434 135.768,11.337 135.768,11.143 L135.768,11.629 L135.768,17.173 L136.594,17.173 z" fill="#FFFFFF" id="path1804"/>
    <path d="M139.276,17.075 L144.538,17.075 L144.538,16.297 L140.205,16.297 L140.205,13.282 L142.991,13.282 L142.991,12.504 L140.205,12.504 L140.205,9.684 L144.229,9.684 L144.229,8.906 L139.276,8.906 z" fill="#FFFFFF" id="path1806"/>
    <path d="M148.975,17.27 C150.522,17.27 151.761,16.492 151.761,15.033 C151.761,13.477 150.419,12.796 149.284,12.407 C148.253,12.018 147.324,11.629 147.324,10.754 C147.324,10.073 147.943,9.587 148.975,9.587 C149.8,9.587 150.419,9.976 150.626,10.365 L151.451,10.073 C151.245,9.295 150.316,8.808 149.078,8.808 C147.427,8.808 146.499,9.684 146.499,10.754 C146.499,12.115 147.84,12.699 149.078,13.185 C150.11,13.574 151.038,14.06 151.038,15.13 C151.038,16.103 150.316,16.589 149.181,16.589 C148.149,16.589 147.427,16.103 147.118,15.422 L146.086,15.617 C146.499,16.492 147.53,17.27 148.975,17.27 z" fill="#FFFFFF" id="path1808"/>
    <path d="M159.086,17.075 L159.911,17.075 L159.911,8.906 L159.086,8.906 L159.086,12.407 L154.856,12.407 L154.856,8.906 L154.03,8.906 L154.03,17.075 L154.856,17.075 L154.856,13.185 L159.086,13.185 z" fill="#FFFFFF" id="path1810"/>
    <path d="M170.848,17.27 C173.53,17.27 174.459,15.033 174.459,13.088 C174.459,11.045 173.53,8.906 170.848,8.906 C168.165,8.906 167.237,11.143 167.237,13.088 C167.237,15.033 168.165,17.27 170.848,17.27 z M170.848,16.492 C168.888,16.492 168.165,14.741 168.165,12.991 C168.165,11.337 168.888,9.489 170.848,9.489 C172.808,9.489 173.53,11.24 173.53,12.991 C173.53,14.644 172.808,16.492 170.848,16.492 z" fill="#FFFFFF" id="path1812"/>
    <path d="M176.626,8.906 L176.626,17.075 L179.721,17.075 C181.888,17.075 182.507,15.908 182.507,14.741 C182.507,13.574 181.785,12.991 180.856,12.699 C181.681,12.407 182.197,11.823 182.197,10.948 C182.197,9.878 181.578,8.808 179.515,8.808 L176.626,8.808 z M179.308,12.504 L177.451,12.504 L177.451,9.684 L179.515,9.684 C180.959,9.684 181.269,10.365 181.269,11.045 C181.372,11.921 180.65,12.504 179.308,12.504 z M179.824,16.395 L177.451,16.395 L177.451,13.185 L179.411,13.185 C181.165,13.185 181.578,13.963 181.578,14.839 C181.681,15.617 181.269,16.395 179.824,16.395 z" fill="#FFFFFF" id="path1814"/>
    <path d="M187.046,17.27 C188.594,17.27 189.832,16.492 189.832,15.033 C189.832,13.477 188.491,12.796 187.356,12.407 C186.324,12.018 185.396,11.629 185.396,10.754 C185.396,10.073 186.015,9.587 187.046,9.587 C187.872,9.587 188.491,9.976 188.697,10.365 L189.523,10.073 C189.316,9.295 188.388,8.808 187.15,8.808 C185.499,8.808 184.57,9.684 184.57,10.754 C184.57,12.115 185.912,12.699 187.15,13.185 C188.181,13.574 189.11,14.06 189.11,15.13 C189.11,16.103 188.388,16.589 187.253,16.589 C186.221,16.589 185.499,16.103 185.189,15.422 L184.158,15.617 C184.467,16.492 185.602,17.27 187.046,17.27 z" fill="#FFFFFF" id="path1816"/>
    <path d="M191.999,17.075 L197.261,17.075 L197.261,16.297 L192.927,16.297 L192.927,13.282 L195.713,13.282 L195.713,12.504 L192.927,12.504 L192.927,9.684 L196.951,9.684 L196.951,8.906 L191.999,8.906 z" fill="#FFFFFF" id="path1818"/>
    <path d="M199.324,17.075 L200.15,17.075 L200.15,13.477 L202.11,13.477 L203.967,17.173 L204.896,17.173 L202.935,13.477 C204.483,13.282 205.102,12.213 205.102,11.24 C205.102,10.17 204.483,9.003 202.42,9.003 L199.221,9.003 z M200.253,12.699 L200.253,9.684 L202.626,9.684 C204.07,9.684 204.483,10.559 204.483,11.24 C204.483,12.018 204.07,12.699 202.626,12.699 z" fill="#FFFFFF" id="path1820"/>
    <path d="M209.745,17.075 L210.364,17.075 L213.356,8.906 L212.428,8.906 L210.364,15.033 C210.261,15.228 210.158,15.519 210.158,15.714 C210.055,15.422 209.951,15.228 209.951,15.033 L207.785,8.906 L206.856,8.906 z" fill="#FFFFFF" id="path1822"/>
    <path d="M219.547,17.075 L220.475,17.075 L217.483,8.906 L216.864,8.906 L213.872,17.075 L214.801,17.075 L215.523,14.936 L218.928,14.936 z M218.515,14.255 L215.626,14.255 L216.864,10.948 C216.967,10.753 217.07,10.365 217.07,10.17 C217.07,10.365 217.277,10.754 217.277,10.948 z" fill="#FFFFFF" id="path1824"/>
    <path d="M222.229,8.906 L222.229,17.075 L225.324,17.075 C227.491,17.075 228.11,15.908 228.11,14.741 C228.11,13.574 227.388,12.991 226.459,12.699 C227.285,12.407 227.801,11.823 227.801,10.948 C227.801,9.878 227.182,8.808 225.118,8.808 L222.229,8.808 z M224.912,12.504 L223.158,12.504 L223.158,9.684 L225.221,9.684 C226.666,9.684 226.975,10.365 226.975,11.045 C226.975,11.921 226.253,12.504 224.912,12.504 z M225.531,16.395 L223.158,16.395 L223.158,13.185 L225.118,13.185 C226.872,13.185 227.285,13.963 227.285,14.839 C227.285,15.617 226.872,16.395 225.531,16.395 z" fill="#FFFFFF" id="path1826"/>
    <path d="M230.277,17.075 L231.102,17.075 L231.102,8.906 L230.277,8.906 z" fill="#FFFFFF" id="path1828"/>
    <path d="M233.682,17.075 L238.84,17.075 L238.84,16.297 L234.507,16.297 L234.507,8.906 L233.682,8.906 z" fill="#FFFFFF" id="path1830"/>
    <path d="M240.594,17.075 L241.42,17.075 L241.42,8.906 L240.594,8.906 z" fill="#FFFFFF" id="path1832"/>
    <path d="M246.785,9.684 L249.158,9.684 L249.158,8.906 L243.483,8.906 L243.483,9.684 L245.856,9.684 L245.856,17.075 L246.682,17.075 z" fill="#FFFFFF" id="path1834"/>
    <path d="M253.285,17.075 L254.11,17.075 L254.11,13.866 L256.896,8.906 L255.967,8.906 L253.594,13.088 L251.325,8.906 L250.396,8.906 L253.182,13.866 z" fill="#FFFFFF" id="path1836"/>
    <g id="g4007">
      <path d="M19.334,8.985 C19.334,8.456 19.614,8.192 20.174,8.192 C20.735,8.192 21.015,8.456 21.015,8.985 L21.015,12.683 L22.976,10.702 C23.116,10.569 23.396,10.437 23.677,10.437 C24.097,10.437 24.517,10.702 24.517,11.23 C24.517,11.494 24.377,11.626 24.237,11.758 L22.976,13.079 L24.797,15.324 C24.938,15.456 24.938,15.72 24.938,15.852 C24.938,16.248 24.517,16.645 24.097,16.645 C23.677,16.645 23.396,16.38 23.256,16.248 L21.575,14.003 L21.015,14.531 L21.015,15.72 C21.015,16.248 20.735,16.512 20.174,16.512 C19.614,16.512 19.334,16.248 19.334,15.72 z" fill="#D7F7FF" id="path3991"/>
      <path d="M26.198,8.06 C26.759,8.06 27.039,8.456 27.039,8.853 C27.039,9.381 26.759,9.777 26.198,9.777 C25.638,9.777 25.358,9.381 25.358,8.985 C25.218,8.456 25.638,8.06 26.198,8.06 C26.198,8.06 26.198,8.06 26.198,8.06 z M25.358,11.23 C25.358,10.834 25.498,10.437 26.198,10.437 C26.899,10.437 27.039,10.834 27.039,11.23 L27.039,15.72 C27.039,16.116 26.899,16.512 26.198,16.512 C25.498,16.512 25.358,16.116 25.358,15.72 z" fill="#D7F7FF" id="path3993"/>
      <path d="M33.624,14.796 C33.624,15.456 33.764,15.588 33.764,15.852 C33.764,16.248 33.343,16.512 32.923,16.512 C32.223,16.512 31.943,16.116 31.943,15.588 C31.242,16.248 30.542,16.512 29.561,16.512 C28.58,16.512 27.599,15.852 27.599,14.796 C27.599,13.475 28.72,13.079 29.981,12.947 L31.102,12.815 C31.522,12.815 31.802,12.683 31.802,12.154 C31.802,11.626 31.242,11.494 30.682,11.494 C29.421,11.494 29.421,12.418 28.72,12.418 C28.3,12.418 28.02,12.154 28.02,11.758 C28.02,11.098 29,10.305 30.822,10.305 C32.503,10.305 33.624,10.834 33.624,12.022 z M31.943,13.607 C31.802,13.739 31.382,13.871 31.242,13.871 L30.542,14.003 C29.841,14.135 29.421,14.267 29.421,14.796 C29.421,15.192 29.841,15.456 30.401,15.456 C31.382,15.456 31.943,14.928 31.943,14.267 z" fill="#D7F7FF" id="path3995"/>
      <path d="M34.464,8.985 C34.464,8.456 34.744,8.192 35.305,8.192 C35.865,8.192 36.145,8.456 36.145,8.985 L36.145,15.72 C36.145,16.248 35.865,16.512 35.305,16.512 C34.744,16.512 34.464,16.248 34.464,15.72 z" fill="#D7F7FF" id="path3997"/>
      <path d="M37.967,8.06 C38.527,8.06 38.807,8.456 38.807,8.853 C38.807,9.381 38.387,9.645 37.967,9.645 C37.406,9.645 37.126,9.249 37.126,8.853 C37.126,8.456 37.546,8.06 37.967,8.06 C37.967,8.06 37.967,8.06 37.967,8.06 z M37.126,11.23 C37.126,10.834 37.266,10.437 37.967,10.437 C38.667,10.437 38.807,10.834 38.807,11.23 L38.807,15.72 C38.807,16.116 38.667,16.512 37.967,16.512 C37.266,16.512 37.126,16.116 37.126,15.72 z" fill="#D7F7FF" id="path3999"/>
      <path d="M10.507,5.815 C7.145,5.815 4.483,8.324 4.483,11.494 C4.483,14.664 7.145,17.173 10.507,17.173 C13.87,17.173 16.392,14.531 16.392,11.494 C16.392,8.456 13.73,5.815 10.507,5.815 z M10.507,16.248 C7.705,16.248 5.464,14.135 5.464,11.494 C5.464,8.853 7.705,6.74 10.507,6.74 C13.309,6.74 15.551,8.853 15.551,11.494 C15.551,11.494 15.551,11.494 15.551,11.494 C15.551,14.135 13.309,16.248 10.507,16.248 z" fill="#D7F7FF" id="path4001"/>
      <path d="M8.406,7.136 C5.884,8.192 4.623,11.098 5.884,13.475 C6.445,14.531 7.285,15.456 8.406,15.852 C10.928,13.739 11.208,10.041 8.966,7.532 C8.826,7.4 8.546,7.268 8.406,7.136 z" fill="#0093DD" id="path4003"/>
      <path d="M4.483,11.494 C4.483,10.173 4.903,8.985 5.884,7.928 C5.324,7.664 4.763,7.532 4.063,7.532 C1.821,7.532 0,9.249 0,11.494 C0,13.739 1.821,15.456 4.063,15.456 C4.623,15.456 5.184,15.324 5.744,15.06 C4.903,14.003 4.483,12.815 4.483,11.494 z" fill="#0093DD" id="path4005"/>
    </g>
    <text transform="matrix(1, 0, 0, 1, 56.261, 11.885)">
      <tspan x="-15.285" y="5" font-family="HelveticaNeue-Bold" font-size="15" fill="#D7F7FF">/ssu</tspan>
    </text>
  </g>
</svg>
